<svg xmlns="http://www.w3.org/2000/svg" viewBox="0 0 590 420" role="img" aria-label="Omega" fill="none"><circle cx="245.0" cy="10.0" r="3.6" fill="#62d4eb"/><circle cx="255.0" cy="10.0" r="3.6" fill="#63d3eb"/><circle cx="265.0" cy="10.0" r="3.6" fill="#64d3eb"/><circle cx="275.0" cy="10.0" r="3.6" fill="#65d3eb"/><circle cx="285.0" cy="10.0" r="3.6" fill="#66d3eb"/><circle cx="295.0" cy="10.0" r="3.6" fill="#67d3eb"/><circle cx="305.0" cy="10.0" r="3.6" fill="#68d2eb"/><circle cx="315.0" cy="10.0" r="3.6" fill="#69d2ec"/><circle cx="325.0" cy="10.0" r="3.6" fill="#6ad2ec"/><circle cx="335.0" cy="10.0" r="3.6" fill="#6bd2ec"/><circle cx="345.0" cy="10.0" r="3.6" fill="#6cd1ec"/><circle cx="195.0" cy="30.0" r="3.6" fill="#6ad2ec"/><circle cx="205.0" cy="30.0" r="3.6" fill="#6bd2ec"/><circle cx="215.0" cy="30.0" r="3.6" fill="#6cd1ec"/><circle cx="225.0" cy="30.0" r="2.2" fill="#4c8fa1"/><circle cx="235.0" cy="30.0" r="2.2" fill="#4c8fa1"/><circle cx="245.0" cy="30.0" r="2.2" fill="#4d8fa1"/><circle cx="255.0" cy="30.0" r="2.2" fill="#4e8ea1"/><circle cx="265.0" cy="30.0" r="2.2" fill="#4e8ea1"/><circle cx="275.0" cy="30.0" r="2.2" fill="#4f8ea1"/><circle cx="285.0" cy="30.0" r="2.2" fill="#508ea1"/><circle cx="295.0" cy="30.0" r="2.2" fill="#508ea1"/><circle cx="305.0" cy="30.0" r="2.2" fill="#508ea1"/><circle cx="315.0" cy="30.0" r="2.2" fill="#518ea2"/><circle cx="325.0" cy="30.0" r="2.2" fill="#528ea2"/><circle cx="335.0" cy="30.0" r="2.2" fill="#528ea2"/><circle cx="345.0" cy="30.0" r="2.2" fill="#538da2"/><circle cx="355.0" cy="30.0" r="2.2" fill="#548da2"/><circle cx="365.0" cy="30.0" r="2.2" fill="#548da2"/><circle cx="375.0" cy="30.0" r="3.6" fill="#7bceee"/><circle cx="385.0" cy="30.0" r="3.6" fill="#7cceef"/><circle cx="395.0" cy="30.0" r="3.6" fill="#7dcdef"/><circle cx="175.0" cy="50.0" r="3.6" fill="#75cfed"/><circle cx="185.0" cy="50.0" r="3.6" fill="#76cfee"/><circle cx="195.0" cy="50.0" r="2.2" fill="#528ea2"/><circle cx="205.0" cy="50.0" r="2.2" fill="#538ea2"/><circle cx="215.0" cy="50.0" r="2.2" fill="#538da2"/><circle cx="225.0" cy="50.0" r="2.2" fill="#548da2"/><circle cx="235.0" cy="50.0" r="2.2" fill="#548da2"/><circle cx="245.0" cy="50.0" r="2.2" fill="#558da3"/><circle cx="255.0" cy="50.0" r="3.6" fill="#7cceef"/><circle cx="265.0" cy="50.0" r="3.6" fill="#7dcdef"/><circle cx="275.0" cy="50.0" r="3.6" fill="#7ecdef"/><circle cx="285.0" cy="50.0" r="3.6" fill="#7fcdef"/><circle cx="295.0" cy="50.0" r="3.6" fill="#80cdef"/><circle cx="305.0" cy="50.0" r="3.6" fill="#81ccef"/><circle cx="315.0" cy="50.0" r="3.6" fill="#82ccf0"/><circle cx="325.0" cy="50.0" r="3.6" fill="#83ccf0"/><circle cx="335.0" cy="50.0" r="3.6" fill="#84ccf0"/><circle cx="345.0" cy="50.0" r="2.2" fill="#5b8ba3"/><circle cx="355.0" cy="50.0" r="2.2" fill="#5c8ba3"/><circle cx="365.0" cy="50.0" r="2.2" fill="#5d8ba3"/><circle cx="375.0" cy="50.0" r="2.2" fill="#5d8ba3"/><circle cx="385.0" cy="50.0" r="2.2" fill="#5d8ba4"/><circle cx="395.0" cy="50.0" r="2.2" fill="#5e8aa4"/><circle cx="405.0" cy="50.0" r="3.6" fill="#8acaf1"/><circle cx="415.0" cy="50.0" r="3.6" fill="#8bcaf1"/><circle cx="145.0" cy="70.0" r="3.6" fill="#7ecdef"/><circle cx="155.0" cy="70.0" r="3.6" fill="#7fcdef"/><circle cx="165.0" cy="70.0" r="2.2" fill="#588ca3"/><circle cx="175.0" cy="70.0" r="2.2" fill="#598ca3"/><circle cx="185.0" cy="70.0" r="2.2" fill="#598ca3"/><circle cx="195.0" cy="70.0" r="2.2" fill="#5a8ca3"/><circle cx="205.0" cy="70.0" r="3.6" fill="#84ccf0"/><circle cx="215.0" cy="70.0" r="3.6" fill="#85cbf0"/><circle cx="375.0" cy="70.0" r="3.6" fill="#94c8f2"/><circle cx="385.0" cy="70.0" r="3.6" fill="#95c8f3"/><circle cx="395.0" cy="70.0" r="2.2" fill="#6688a5"/><circle cx="405.0" cy="70.0" r="2.2" fill="#6788a5"/><circle cx="415.0" cy="70.0" r="2.2" fill="#6888a5"/><circle cx="425.0" cy="70.0" r="2.2" fill="#6888a5"/><circle cx="435.0" cy="70.0" r="3.6" fill="#99c7f3"/><circle cx="445.0" cy="70.0" r="3.6" fill="#9ac6f3"/><circle cx="135.0" cy="90.0" r="3.6" fill="#8acaf1"/><circle cx="145.0" cy="90.0" r="2.2" fill="#5f8aa4"/><circle cx="155.0" cy="90.0" r="2.2" fill="#608aa4"/><circle cx="165.0" cy="90.0" r="2.2" fill="#618aa4"/><circle cx="175.0" cy="90.0" r="2.2" fill="#618aa4"/><circle cx="185.0" cy="90.0" r="3.6" fill="#8ec9f2"/><circle cx="405.0" cy="90.0" r="3.6" fill="#a3c4f5"/><circle cx="415.0" cy="90.0" r="2.2" fill="#7086a7"/><circle cx="425.0" cy="90.0" r="2.2" fill="#7086a7"/><circle cx="435.0" cy="90.0" r="2.2" fill="#7186a7"/><circle cx="445.0" cy="90.0" r="2.2" fill="#7186a7"/><circle cx="455.0" cy="90.0" r="3.6" fill="#a8c3f6"/><circle cx="115.0" cy="110.0" r="3.6" fill="#94c8f2"/><circle cx="125.0" cy="110.0" r="3.6" fill="#95c8f3"/><circle cx="135.0" cy="110.0" r="2.2" fill="#6688a5"/><circle cx="145.0" cy="110.0" r="2.2" fill="#6788a5"/><circle cx="155.0" cy="110.0" r="2.2" fill="#6888a5"/><circle cx="165.0" cy="110.0" r="3.6" fill="#99c7f3"/><circle cx="425.0" cy="110.0" r="3.6" fill="#b1c1f7"/><circle cx="435.0" cy="110.0" r="2.2" fill="#7984a8"/><circle cx="445.0" cy="110.0" r="2.2" fill="#7984a8"/><circle cx="455.0" cy="110.0" r="2.2" fill="#7a84a9"/><circle cx="465.0" cy="110.0" r="3.6" fill="#b5c0f8"/><circle cx="475.0" cy="110.0" r="3.6" fill="#b6c0f8"/><circle cx="105.0" cy="130.0" r="3.6" fill="#a0c5f4"/><circle cx="115.0" cy="130.0" r="3.6" fill="#a1c5f4"/><circle cx="125.0" cy="130.0" r="2.2" fill="#6e87a7"/><circle cx="135.0" cy="130.0" r="2.2" fill="#6e86a7"/><circle cx="145.0" cy="130.0" r="3.6" fill="#a3c4f5"/><circle cx="155.0" cy="130.0" r="3.6" fill="#a4c4f5"/><circle cx="435.0" cy="130.0" r="3.6" fill="#bfbef9"/><circle cx="445.0" cy="130.0" r="3.6" fill="#c0bdf9"/><circle cx="455.0" cy="130.0" r="2.2" fill="#8282aa"/><circle cx="465.0" cy="130.0" r="2.2" fill="#8282aa"/><circle cx="475.0" cy="130.0" r="3.6" fill="#c2bdfa"/><circle cx="485.0" cy="130.0" r="3.6" fill="#c3bdfa"/><circle cx="95.0" cy="150.0" r="3.6" fill="#abc2f6"/><circle cx="105.0" cy="150.0" r="3.6" fill="#acc2f6"/><circle cx="115.0" cy="150.0" r="2.2" fill="#7585a7"/><circle cx="125.0" cy="150.0" r="2.2" fill="#7685a8"/><circle cx="135.0" cy="150.0" r="3.6" fill="#afc1f7"/><circle cx="145.0" cy="150.0" r="3.6" fill="#b0c1f7"/><circle cx="445.0" cy="150.0" r="3.6" fill="#ccbbfb"/><circle cx="455.0" cy="150.0" r="3.6" fill="#cdbafb"/><circle cx="465.0" cy="150.0" r="2.2" fill="#8b80ab"/><circle cx="475.0" cy="150.0" r="2.2" fill="#8b80ab"/><circle cx="485.0" cy="150.0" r="3.6" fill="#d0bafc"/><circle cx="495.0" cy="150.0" r="3.6" fill="#d1b9fc"/><circle cx="95.0" cy="170.0" r="3.6" fill="#b7bff8"/><circle cx="105.0" cy="170.0" r="2.2" fill="#7c83a9"/><circle cx="115.0" cy="170.0" r="2.2" fill="#7d83a9"/><circle cx="125.0" cy="170.0" r="3.6" fill="#babff9"/><circle cx="135.0" cy="170.0" r="3.6" fill="#bbbef9"/><circle cx="455.0" cy="170.0" r="3.6" fill="#d9b7fd"/><circle cx="465.0" cy="170.0" r="3.6" fill="#dab7fe"/><circle cx="475.0" cy="170.0" r="2.2" fill="#937eac"/><circle cx="485.0" cy="170.0" r="2.2" fill="#947eac"/><circle cx="495.0" cy="170.0" r="3.6" fill="#ddb6fe"/><circle cx="85.0" cy="190.0" r="3.6" fill="#c3bdfa"/><circle cx="95.0" cy="190.0" r="2.2" fill="#8481aa"/><circle cx="105.0" cy="190.0" r="2.2" fill="#8581aa"/><circle cx="115.0" cy="190.0" r="2.2" fill="#8681aa"/><circle cx="125.0" cy="190.0" r="3.6" fill="#c7bcfa"/><circle cx="465.0" cy="190.0" r="3.6" fill="#e4b5fd"/><circle cx="475.0" cy="190.0" r="2.2" fill="#997dac"/><circle cx="485.0" cy="190.0" r="2.2" fill="#997dab"/><circle cx="495.0" cy="190.0" r="2.2" fill="#997daa"/><circle cx="505.0" cy="190.0" r="3.6" fill="#e4b5fb"/><circle cx="85.0" cy="210.0" r="3.6" fill="#cfbafc"/><circle cx="95.0" cy="210.0" r="2.2" fill="#8c7fab"/><circle cx="105.0" cy="210.0" r="2.2" fill="#8d7fab"/><circle cx="115.0" cy="210.0" r="2.2" fill="#8d7fab"/><circle cx="475.0" cy="210.0" r="2.2" fill="#9a7da7"/><circle cx="485.0" cy="210.0" r="2.2" fill="#9a7da7"/><circle cx="495.0" cy="210.0" r="2.2" fill="#9a7da7"/><circle cx="505.0" cy="210.0" r="3.6" fill="#e7b5f4"/><circle cx="85.0" cy="230.0" r="2.2" fill="#947eac"/><circle cx="95.0" cy="230.0" r="2.2" fill="#957eac"/><circle cx="105.0" cy="230.0" r="2.2" fill="#957dac"/><circle cx="115.0" cy="230.0" r="3.6" fill="#dfb6fe"/><circle cx="475.0" cy="230.0" r="3.6" fill="#e8b5ef"/><circle cx="485.0" cy="230.0" r="2.2" fill="#9c7da2"/><circle cx="495.0" cy="230.0" r="2.2" fill="#9c7da2"/><circle cx="505.0" cy="230.0" r="3.6" fill="#e9b5ed"/><circle cx="85.0" cy="250.0" r="2.2" fill="#997dab"/><circle cx="95.0" cy="250.0" r="2.2" fill="#997dab"/><circle cx="105.0" cy="250.0" r="2.2" fill="#997daa"/><circle cx="115.0" cy="250.0" r="3.6" fill="#e4b5fb"/><circle cx="475.0" cy="250.0" r="3.6" fill="#ebb5e8"/><circle cx="485.0" cy="250.0" r="2.2" fill="#9e7d9e"/><circle cx="495.0" cy="250.0" r="2.2" fill="#9e7d9e"/><circle cx="505.0" cy="250.0" r="2.2" fill="#9e7d9d"/><circle cx="85.0" cy="270.0" r="3.6" fill="#e6b5f5"/><circle cx="95.0" cy="270.0" r="2.2" fill="#9a7da7"/><circle cx="105.0" cy="270.0" r="2.2" fill="#9b7da6"/><circle cx="115.0" cy="270.0" r="3.6" fill="#e7b5f4"/><circle cx="475.0" cy="270.0" r="3.6" fill="#edb5e1"/><circle cx="485.0" cy="270.0" r="2.2" fill="#9f7d99"/><circle cx="495.0" cy="270.0" r="2.2" fill="#9f7d99"/><circle cx="505.0" cy="270.0" r="3.6" fill="#eeb5df"/><circle cx="85.0" cy="290.0" r="3.6" fill="#e9b5ee"/><circle cx="95.0" cy="290.0" r="2.2" fill="#9c7da2"/><circle cx="105.0" cy="290.0" r="2.2" fill="#9c7da1"/><circle cx="115.0" cy="290.0" r="3.6" fill="#e9b5ed"/><circle cx="125.0" cy="290.0" r="3.6" fill="#e9b5ec"/><circle cx="475.0" cy="290.0" r="2.2" fill="#a07d95"/><circle cx="485.0" cy="290.0" r="2.2" fill="#a07d95"/><circle cx="495.0" cy="290.0" r="2.2" fill="#a17d94"/><circle cx="505.0" cy="290.0" r="3.6" fill="#f0b5d8"/><circle cx="85.0" cy="310.0" r="3.6" fill="#ebb5e8"/><circle cx="95.0" cy="310.0" r="2.2" fill="#9e7d9e"/><circle cx="105.0" cy="310.0" r="2.2" fill="#9e7d9d"/><circle cx="115.0" cy="310.0" r="2.2" fill="#9e7d9d"/><circle cx="125.0" cy="310.0" r="3.6" fill="#ecb5e5"/><circle cx="465.0" cy="310.0" r="3.6" fill="#f1b4d4"/><circle cx="475.0" cy="310.0" r="2.2" fill="#a27c90"/><circle cx="485.0" cy="310.0" r="2.2" fill="#a27c90"/><circle cx="495.0" cy="310.0" r="2.2" fill="#a27c90"/><circle cx="505.0" cy="310.0" r="3.6" fill="#f2b4d2"/><circle cx="95.0" cy="330.0" r="3.6" fill="#edb5e0"/><circle cx="105.0" cy="330.0" r="2.2" fill="#9f7d99"/><circle cx="115.0" cy="330.0" r="2.2" fill="#a07d98"/><circle cx="125.0" cy="330.0" r="2.2" fill="#a07d98"/><circle cx="135.0" cy="330.0" r="3.6" fill="#eeb5de"/><circle cx="455.0" cy="330.0" r="3.6" fill="#f4b4cd"/><circle cx="465.0" cy="330.0" r="2.2" fill="#a47c8d"/><circle cx="475.0" cy="330.0" r="2.2" fill="#a47c8c"/><circle cx="485.0" cy="330.0" r="2.2" fill="#a47c8c"/><circle cx="495.0" cy="330.0" r="3.6" fill="#f4b4cb"/><circle cx="105.0" cy="350.0" r="3.6" fill="#f0b5d9"/><circle cx="115.0" cy="350.0" r="2.2" fill="#a17d94"/><circle cx="125.0" cy="350.0" r="2.2" fill="#a17d94"/><circle cx="135.0" cy="350.0" r="2.2" fill="#a17d93"/><circle cx="145.0" cy="350.0" r="3.6" fill="#f0b5d7"/><circle cx="445.0" cy="350.0" r="3.6" fill="#f6b4c7"/><circle cx="455.0" cy="350.0" r="2.2" fill="#a57c88"/><circle cx="465.0" cy="350.0" r="2.2" fill="#a57c88"/><circle cx="475.0" cy="350.0" r="2.2" fill="#a57c87"/><circle cx="485.0" cy="350.0" r="3.6" fill="#f6b4c5"/><circle cx="25.0" cy="370.0" r="3.6" fill="#f1b5d6"/><circle cx="35.0" cy="370.0" r="3.6" fill="#f1b5d5"/><circle cx="45.0" cy="370.0" r="3.6" fill="#f1b4d5"/><circle cx="55.0" cy="370.0" r="3.6" fill="#f1b4d4"/><circle cx="65.0" cy="370.0" r="3.6" fill="#f1b4d4"/><circle cx="75.0" cy="370.0" r="3.6" fill="#f2b4d3"/><circle cx="85.0" cy="370.0" r="3.6" fill="#f2b4d3"/><circle cx="95.0" cy="370.0" r="3.6" fill="#f2b4d2"/><circle cx="105.0" cy="370.0" r="3.6" fill="#f2b4d2"/><circle cx="115.0" cy="370.0" r="2.2" fill="#a27c8f"/><circle cx="125.0" cy="370.0" r="2.2" fill="#a27c8f"/><circle cx="135.0" cy="370.0" r="2.2" fill="#a37c8f"/><circle cx="145.0" cy="370.0" r="2.2" fill="#a37c8f"/><circle cx="155.0" cy="370.0" r="3.6" fill="#f3b4cf"/><circle cx="435.0" cy="370.0" r="3.6" fill="#f8b4c1"/><circle cx="445.0" cy="370.0" r="2.2" fill="#a67c84"/><circle cx="455.0" cy="370.0" r="2.2" fill="#a67c84"/><circle cx="465.0" cy="370.0" r="2.2" fill="#a67c84"/><circle cx="475.0" cy="370.0" r="2.2" fill="#a67c84"/><circle cx="485.0" cy="370.0" r="3.6" fill="#f9b4be"/><circle cx="495.0" cy="370.0" r="3.6" fill="#f9b4bd"/><circle cx="505.0" cy="370.0" r="3.6" fill="#f9b4bd"/><circle cx="515.0" cy="370.0" r="3.6" fill="#f9b4bc"/><circle cx="525.0" cy="370.0" r="3.6" fill="#f9b4bc"/><circle cx="535.0" cy="370.0" r="3.6" fill="#fab4bb"/><circle cx="545.0" cy="370.0" r="3.6" fill="#fab4bb"/><circle cx="555.0" cy="370.0" r="3.6" fill="#fab4ba"/><circle cx="565.0" cy="370.0" r="3.6" fill="#fab4ba"/><circle cx="15.0" cy="390.0" r="3.6" fill="#f3b4d0"/><circle cx="25.0" cy="390.0" r="2.2" fill="#a37c8e"/><circle cx="35.0" cy="390.0" r="2.2" fill="#a37c8e"/><circle cx="45.0" cy="390.0" r="2.2" fill="#a37c8d"/><circle cx="55.0" cy="390.0" r="2.2" fill="#a37c8d"/><circle cx="65.0" cy="390.0" r="2.2" fill="#a47c8d"/><circle cx="75.0" cy="390.0" r="2.2" fill="#a47c8c"/><circle cx="85.0" cy="390.0" r="2.2" fill="#a47c8c"/><circle cx="95.0" cy="390.0" r="2.2" fill="#a47c8b"/><circle cx="105.0" cy="390.0" r="2.2" fill="#a47c8b"/><circle cx="115.0" cy="390.0" r="2.2" fill="#a47c8b"/><circle cx="125.0" cy="390.0" r="2.2" fill="#a47c8b"/><circle cx="135.0" cy="390.0" r="2.2" fill="#a47c8a"/><circle cx="145.0" cy="390.0" r="2.2" fill="#a47c8a"/><circle cx="155.0" cy="390.0" r="2.2" fill="#a47c89"/><circle cx="165.0" cy="390.0" r="3.6" fill="#f5b4c8"/><circle cx="175.0" cy="390.0" r="3.6" fill="#f6b4c7"/><circle cx="415.0" cy="390.0" r="3.6" fill="#fab4bb"/><circle cx="425.0" cy="390.0" r="3.6" fill="#fab4ba"/><circle cx="435.0" cy="390.0" r="2.2" fill="#a77c80"/><circle cx="445.0" cy="390.0" r="2.2" fill="#a77c80"/><circle cx="455.0" cy="390.0" r="2.2" fill="#a77c80"/><circle cx="465.0" cy="390.0" r="2.2" fill="#a87c7f"/><circle cx="475.0" cy="390.0" r="2.2" fill="#a87c7f"/><circle cx="485.0" cy="390.0" r="2.2" fill="#a87c7e"/><circle cx="495.0" cy="390.0" r="2.2" fill="#a87c7e"/><circle cx="505.0" cy="390.0" r="2.2" fill="#a87c7e"/><circle cx="515.0" cy="390.0" r="2.2" fill="#a87c7e"/><circle cx="525.0" cy="390.0" r="2.2" fill="#a97c7d"/><circle cx="535.0" cy="390.0" r="2.2" fill="#a97c7c"/><circle cx="545.0" cy="390.0" r="2.2" fill="#a97c7c"/><circle cx="555.0" cy="390.0" r="2.2" fill="#a97c7c"/><circle cx="565.0" cy="390.0" r="2.2" fill="#a97c7c"/><circle cx="575.0" cy="390.0" r="3.6" fill="#fdb4b2"/><circle cx="5.0" cy="410.0" r="3.6" fill="#f5b4c9"/><circle cx="15.0" cy="410.0" r="3.6" fill="#f5b4c9"/><circle cx="25.0" cy="410.0" r="3.6" fill="#f5b4c8"/><circle cx="35.0" cy="410.0" r="3.6" fill="#f5b4c8"/><circle cx="45.0" cy="410.0" r="3.6" fill="#f6b4c7"/><circle cx="55.0" cy="410.0" r="3.6" fill="#f6b4c7"/><circle cx="65.0" cy="410.0" r="3.6" fill="#f6b4c6"/><circle cx="75.0" cy="410.0" r="3.6" fill="#f6b4c6"/><circle cx="85.0" cy="410.0" r="3.6" fill="#f6b4c5"/><circle cx="95.0" cy="410.0" r="3.6" fill="#f6b4c5"/><circle cx="105.0" cy="410.0" r="3.6" fill="#f7b4c4"/><circle cx="115.0" cy="410.0" r="3.6" fill="#f7b4c4"/><circle cx="125.0" cy="410.0" r="3.6" fill="#f7b4c3"/><circle cx="135.0" cy="410.0" r="3.6" fill="#f7b4c2"/><circle cx="145.0" cy="410.0" r="3.6" fill="#f7b4c2"/><circle cx="155.0" cy="410.0" r="3.6" fill="#f8b4c1"/><circle cx="165.0" cy="410.0" r="3.6" fill="#f8b4c1"/><circle cx="175.0" cy="410.0" r="3.6" fill="#f8b4c0"/><circle cx="185.0" cy="410.0" r="3.6" fill="#f8b4c0"/><circle cx="195.0" cy="410.0" r="3.6" fill="#f8b4bf"/><circle cx="395.0" cy="410.0" r="3.6" fill="#fcb4b5"/><circle cx="405.0" cy="410.0" r="3.6" fill="#fcb4b4"/><circle cx="415.0" cy="410.0" r="3.6" fill="#fcb4b4"/><circle cx="425.0" cy="410.0" r="3.6" fill="#fcb4b3"/><circle cx="435.0" cy="410.0" r="3.6" fill="#fcb4b3"/><circle cx="445.0" cy="410.0" r="3.6" fill="#fdb4b2"/><circle cx="455.0" cy="410.0" r="3.6" fill="#fdb4b2"/><circle cx="465.0" cy="410.0" r="3.6" fill="#fdb4b1"/><circle cx="475.0" cy="410.0" r="3.6" fill="#fdb4b1"/><circle cx="485.0" cy="410.0" r="3.6" fill="#fdb4b0"/><circle cx="495.0" cy="410.0" r="3.6" fill="#fdb4b0"/><circle cx="505.0" cy="410.0" r="3.6" fill="#feb4af"/><circle cx="515.0" cy="410.0" r="3.6" fill="#feb4af"/><circle cx="525.0" cy="410.0" r="3.6" fill="#feb4ae"/><circle cx="535.0" cy="410.0" r="3.6" fill="#feb4ae"/><circle cx="545.0" cy="410.0" r="3.6" fill="#feb4ad"/><circle cx="555.0" cy="410.0" r="3.6" fill="#feb4ad"/><circle cx="565.0" cy="410.0" r="3.6" fill="#ffb4ac"/><circle cx="575.0" cy="410.0" r="3.6" fill="#ffb4ac"/><circle cx="585.0" cy="410.0" r="3.6" fill="#ffb4ab"/></svg>
